<svg width="512" height="512" viewBox="0 0 512 512" xmlns="http://www.w3.org/2000/svg">
  <defs>
    <linearGradient id="grad1" x1="0%" y1="0%" x2="100%" y2="100%">
      <stop offset="0%" style="stop-color:#D58A94;stop-opacity:1" />
      <stop offset="100%" style="stop-color:#c77a85;stop-opacity:1" />
    </linearGradient>
  </defs>
  
  <!-- Background circle -->
  <circle cx="256" cy="256" r="240" fill="url(#grad1)" stroke="#fff" stroke-width="8"/>
  
  <!-- Main container/box -->
  <rect x="140" y="120" width="232" height="280" rx="16" fill="#fff" stroke="#D58A94" stroke-width="4"/>
  
  <!-- Header line -->
  <rect x="160" y="150" width="192" height="20" rx="4" fill="#D58A94"/>
  
  <!-- Inventory items (boxes) -->
  <rect x="160" y="190" width="60" height="50" rx="6" fill="#f0f0f0" stroke="#D58A94" stroke-width="2"/>
  <rect x="240" y="190" width="60" height="50" rx="6" fill="#f0f0f0" stroke="#D58A94" stroke-width="2"/>
  <rect x="320" y="190" width="60" height="50" rx="6" fill="#D58A94"/>
  
  <rect x="160" y="260" width="60" height="50" rx="6" fill="#D58A94"/>
  <rect x="240" y="260" width="60" height="50" rx="6" fill="#f0f0f0" stroke="#D58A94" stroke-width="2"/>
  <rect x="320" y="260" width="60" height="50" rx="6" fill="#f0f0f0" stroke="#D58A94" stroke-width="2"/>
  
  <rect x="160" y="330" width="60" height="50" rx="6" fill="#f0f0f0" stroke="#D58A94" stroke-width="2"/>
  <rect x="240" y="330" width="60" height="50" rx="6" fill="#D58A94"/>
  <rect x="320" y="330" width="60" height="50" rx="6" fill="#f0f0f0" stroke="#D58A94" stroke-width="2"/>
  
  <!-- Checkmarks on filled boxes -->
  <path d="M180 205 L190 215 L205 200" stroke="#fff" stroke-width="3" fill="none" stroke-linecap="round"/>
  <path d="M340 205 L350 215 L365 200" stroke="#fff" stroke-width="3" fill="none" stroke-linecap="round"/>
  <path d="M180 275 L190 285 L205 270" stroke="#fff" stroke-width="3" fill="none" stroke-linecap="round"/>
  <path d="M260 345 L270 355 L285 340" stroke="#fff" stroke-width="3" fill="none" stroke-linecap="round"/>
</svg>